<?xml version="1.0" encoding="utf-8"?>
<!-- Generator: Adobe Illustrator 24.3.0, SVG Export Plug-In . SVG Version: 6.00 Build 0)  -->
<svg version="1.1" id="Layer_1" focusable="false" xmlns="http://www.w3.org/2000/svg" xmlns:xlink="http://www.w3.org/1999/xlink"
	 x="0px" y="0px" viewBox="0 0 24 24" style="enable-background:new 0 0 24 24;" xml:space="preserve">
<style type="text/css">
	.st0{fill:#333333;}
</style>
<path class="st0" d="M12,4.5c2.5,0,2.8,0,3.8,0.1c2.5,0.1,3.7,1.3,3.8,3.7c0.1,1,0.1,1.2,0.1,3.7c0,2.4,0,2.8-0.1,3.7
	c-0.1,2.4-1.3,3.7-3.8,3.7c-1,0.1-1.2,0.1-3.8,0.1c-2.5,0-2.8,0-3.7-0.1c-2.5-0.1-3.7-1.3-3.8-3.7c-0.1-1-0.1-1.2-0.1-3.7
	c0-2.4,0-2.8,0.1-3.7c0.1-2.4,1.3-3.7,3.8-3.7C9.2,4.5,9.5,4.5,12,4.5z M12,2.8c-2.5,0-2.8,0-3.8,0.1C4.9,3.1,3,4.9,2.9,8.3
	C2.8,9.2,2.8,9.5,2.8,12c0,2.5,0,2.8,0.1,3.7c0.2,3.4,2,5.2,5.4,5.3c0.9,0.1,1.2,0.1,3.8,0.1c2.5,0,2.8,0,3.8-0.1
	c3.4-0.2,5.2-2,5.4-5.3c0.1-0.9,0.1-1.2,0.1-3.7c0-2.5,0-2.8-0.1-3.7c-0.2-3.4-2-5.2-5.4-5.3C14.8,2.8,14.5,2.8,12,2.8z M12,7.3
	c-2.6,0-4.8,2.1-4.8,4.7c0,2.6,2.1,4.7,4.8,4.7c2.6,0,4.8-2.1,4.8-4.7C16.8,9.4,14.6,7.3,12,7.3z M12,15.1c-1.7,0-3.1-1.4-3.1-3.1
	c0-1.7,1.4-3.1,3.1-3.1s3.1,1.4,3.1,3.1C15.1,13.7,13.7,15.1,12,15.1z M16.9,6c-0.6,0-1.1,0.5-1.1,1.1s0.5,1.1,1.1,1.1
	c0.6,0,1.1-0.5,1.1-1.1S17.5,6,16.9,6z"/>
</svg>
